<svg xmlns="http://www.w3.org/2000/svg" xmlns:xlink="http://www.w3.org/1999/xlink" version="1.1" enable-background="new 0 0 100 100" xml:space="preserve" width="100" height="125" style=""><rect id="backgroundrect" width="100%" height="100%" x="0" y="0" fill="none" stroke="none"/>

<!-- <text x="0" y="115" fill="#fdfdfd" font-size="5px" font-weight="bold" font-family="'Helvetica Neue', Helvetica, Arial-Unicode, Arial, Sans-serif">Created by Chris Terrill</text><text x="0" y="120" fill="#fdfdfd" font-size="5px" font-weight="bold" font-family="'Helvetica Neue', Helvetica, Arial-Unicode, Arial, Sans-serif">from the Noun Project</text> -->

<g class="currentLayer" style=""><title>Layer 1</title><g id="svg_1"><rect x="-192" width="185" height="99" id="svg_2"/><rect y="-36" width="100" height="30" id="svg_3"/><text transform="matrix(1,0,0,1,66,-19.5) " fill="#fdfdfd" font-family="'Helvetica'" font-size="2.4" id="svg_4">http://thenounproject.com</text><text transform="matrix(1,0,0,1,7.166,-24.5) " id="svg_5"><tspan x="0" y="0" fill="#fdfdfd" font-family="'Helvetica-Bold'" font-size="6.1578" id="svg_6">The Noun Project</tspan><tspan x="1.12" y="4.8" fill="#fdfdfd" font-family="'Helvetica-Bold'" font-size="4" id="svg_7">Icon Template</tspan></text><text transform="matrix(1,0,0,1,-178.5,10.5) " fill="#fdfdfd" font-family="'Helvetica-Bold'" font-size="6.1578" id="svg_8">Reminders</text><line fill="#fdfdfd" stroke="#473930" stroke-miterlimit="10" x1="8" y1="-14.5" x2="18" y2="-14.5" id="svg_9"/><line fill="#fdfdfd;" stroke="#FFFFFF" stroke-miterlimit="10" x1="-179" y1="16.5" x2="-162" y2="16.5" id="svg_10"/><g id="svg_11"><g id="svg_12"><g id="svg_13"><rect x="-170.802001953125" y="31.31800079345703" fill="#fdfdfd" width="8.720999717712402" height="8.642000198364258" id="svg_14"/><path fill="#fdfdfd;" d="M-164.455,42.312h4.747v-4.703h-4.747V42.312z M-159.266,42.749h-5.63V37.17h5.63V42.749      L-159.266,42.749z M-166.221,44.062h8.279v-8.203h-8.279V44.062L-166.221,44.062z M-157.5,44.5h-9.163v-9.079h9.163V44.5      L-157.5,44.5z" id="svg_15"/><polygon fill="#fdfdfd" points="-166.149,44.133 -166.292,43.991 -158.013,35.787 -157.871,35.929     " id="svg_16"/></g></g></g><rect x="-179" y="58" fill="none" width="35" height="32.5" id="svg_17"/><text transform="matrix(1,0,0,1,-179,60.1572) " id="svg_18"><tspan x="0" y="0" fill="#fdfdfd" font-family="'Helvetica-Bold'" font-size="3" id="svg_19">Strokes</tspan><tspan x="0" y="5" fill="#fdfdfd" font-family="'Helvetica'" font-size="2.4" id="svg_20">Try to keep strokes at 4px</tspan><tspan x="0" y="10" fill="#fdfdfd" font-family="'Helvetica'" font-size="2.4" id="svg_21">Minimum stroke weight is 2px</tspan><tspan x="0" y="14.5" fill="#fdfdfd" font-family="'Helvetica'" font-size="2.4" id="svg_22">For thicker strokes use even </tspan><tspan x="0" y="17.5" fill="#fdfdfd" font-family="'Helvetica'" font-size="2.4" id="svg_23">numbers: 6px, 8px etc.</tspan><tspan x="0" y="22" fill="#fdfdfd" font-family="'Helvetica-Bold'" font-size="2.4" id="svg_24">Remember to expand strokes </tspan><tspan x="0" y="25" fill="#fdfdfd" font-family="'Helvetica-Bold'" font-size="2.4" id="svg_25">before saving as an SVG </tspan></text><rect x="-136.5" y="58" fill="none" width="35" height="32.5" id="svg_26"/><text transform="matrix(1,0,0,1,-136.5,60.1572) " id="svg_27"><tspan x="0" y="0" fill="#fdfdfd" font-family="'Helvetica-Bold'" font-size="3" id="svg_28">Size</tspan><tspan x="0" y="5" fill="#fdfdfd" font-family="'Helvetica'" font-size="2.4" id="svg_29">Cannot be wider or taller than </tspan><tspan x="0" y="8.5" fill="#fdfdfd" font-family="'Helvetica'" font-size="2.4" id="svg_30">100px (artboard size)</tspan><tspan x="0" y="13.5" fill="#fdfdfd" font-family="'Helvetica'" font-size="2.4" id="svg_31">Scale your icon to fill as much of </tspan><tspan x="0" y="16.5" fill="#fdfdfd" font-family="'Helvetica'" font-size="2.4" id="svg_32">the artboard as possible</tspan></text><rect x="-94" y="58" fill="none" width="35" height="32.5" id="svg_33"/><text transform="matrix(1,0,0,1,-94,60.1572) " id="svg_34"><tspan x="0" y="0" fill="#fdfdfd" font-family="'Helvetica-Bold'" font-size="3" id="svg_35">Ungroup</tspan><tspan x="0" y="5" fill="#fdfdfd" font-family="'Helvetica'" font-size="2.4" id="svg_36">If your design has more than one </tspan><tspan x="0" y="8" fill="#fdfdfd" font-family="'Helvetica'" font-size="2.4" id="svg_37">shape, make sure to ungroup</tspan></text><rect x="-50" y="58" fill="none" width="35" height="32.5" id="svg_38"/><text transform="matrix(1,0,0,1,-50,60.1572) " id="svg_39"><tspan x="0" y="0" fill="#fdfdfd" font-family="'Helvetica-Bold'" font-size="3" id="svg_40">Save as</tspan><tspan x="0" y="5" fill="#fdfdfd" font-family="'Helvetica'" font-size="2.4" id="svg_41">Save as .SVG and make sure </tspan><tspan x="0" y="8" fill="#fdfdfd" font-family="'Helvetica'" font-size="2.4" id="svg_42">“Use Artboards” is checked</tspan></text><text transform="matrix(1.0074,0,0,1,-125.542,30.5933) " fill="#fdfdfd" font-family="'Helvetica'" font-size="2.5731" id="svg_43">100px</text><text transform="matrix(1.0074,0,0,1,-41,39) " fill="#fdfdfd" font-family="'Helvetica-Bold'" font-size="5.1462" id="svg_44">.SVG</text><rect x="-126.51399993896484" y="34.814998626708984" fill="#fdfdfd" width="10.26099967956543" height="10.1850004196167" id="svg_45"/><rect x="-126.47699737548828" y="31.766000747680664" fill="#fdfdfd" width="0.5220000147819519" height="2.3369998931884766" id="svg_46"/><rect x="-116.81199645996094" y="31.766000747680664" fill="#fdfdfd" width="0.5230000019073486" height="2.3369998931884766" id="svg_47"/><rect x="-127" y="32.33700180053711" fill="#fdfdfd" width="11.232999801635742" height="0.5720000267028809" id="svg_48"/><g id="svg_49"><rect x="-83.80500030517578" y="33.84400177001953" fill="#fdfdfd" width="10.305000305175781" height="10.156000137329102" id="svg_50"/><rect x="-76.80899810791016" y="28.707000732421875" fill="#fdfdfd" width="3.308000087738037" height="3.260999917984009" id="svg_51"/></g><rect x="-178.5" y="22.5" fill="#fdfdfd" stroke="#FFFFFF" stroke-miterlimit="10" width="30" height="30" id="svg_52"/><rect x="-136.5" y="22.5" fill="#fdfdfd" stroke="#FFFFFF" stroke-miterlimit="10" width="30" height="30" id="svg_53"/><rect x="-93.5" y="22.5" fill="#fdfdfd;" stroke="#FFFFFF" stroke-miterlimit="10" width="30" height="30" id="svg_54"/><rect x="-49.5" y="22.5" fill="#fdfdfd" stroke="#FFFFFF" stroke-miterlimit="10" width="30" height="30" id="svg_55"/></g><g id="svg_56" class="selected" fill="#ffffff" fill-opacity="1"><path fill="#ffffff" stroke="#989898" stroke-width="3.2864" stroke-miterlimit="10" d="M62.445,28.593" id="svg_57" fill-opacity="1"/><g id="svg_58" fill="#ffffff" fill-opacity="1"><path d="M87.971,42.305c-0.002-0.01-0.006-0.019-0.006-0.029c-0.101-4.953-5.122-9.345-13.559-11.922    c0.113-1.791-0.184-3.599-0.476-5.359c-0.008-0.031-0.014-0.061-0.02-0.09c-0.834-3.67-0.375-5.142,2.587-8.288    c0.601-0.638,0.57-1.644-0.069-2.245c-0.639-0.602-1.644-0.572-2.246,0.067c-3.28,3.488-4.55,5.925-3.38,11.124    c0.232,1.382,0.447,2.711,0.453,3.948c-4.086-0.936-8.615-1.428-13.228-1.428c-4.761,0-9.44,0.532-13.624,1.529l-0.054-0.078    c-2.063-3.068-4.631-6.887-4.75-9.524c-0.173-3.313,2.351-6.571,4.502-8.72c0.62-0.621,0.62-1.626,0-2.247    c-0.621-0.62-1.627-0.62-2.247,0c-3.736,3.737-5.613,7.587-5.427,11.121c0.146,3.255,2.492,6.968,4.746,10.338    c-8.245,2.615-13.102,6.985-13.102,11.924c0,0.001,0,0.004,0,0.006c-4.77-1.312-8.712-1.104-11.741,0.642    c-4.052,2.334-4.833,6.53-4.849,6.631C8.34,63.524,21.277,72.283,28.228,76.99c0.667,0.45,1.273,0.859,1.794,1.229    c4.827,3.422,6.069,5.644,6.194,5.889C40.527,95.58,55.222,96,57.32,96c0.118,0,0.197-0.001,0.231-0.002    c16.194,0,20.594-11.473,20.763-11.938C88.899,56.494,88.015,42.872,87.971,42.305z M75.345,82.938    c-0.153,0.402-3.893,9.884-17.825,9.885c-0.151-0.006-14.62,0.168-18.37-9.938c-0.125-0.303-1.394-3.078-7.292-7.258    c-0.539-0.381-1.162-0.804-1.849-1.268c-6.322-4.279-18.089-12.246-15.412-24.026c0.005-0.028,0.584-2.929,3.321-4.505    c2.602-1.498,6.331-1.412,11.072,0.223c3.277,6.341,15.014,10.709,29.038,10.709c11.549,0,21.377-2.979,26.391-7.453    C83.646,55.818,81.453,67.027,75.345,82.938z M81.401,47.72c-2.12-5.666-11.834-9.829-23.85-9.829    c-12.241,0-21.555,3.729-23.75,9.162c-1.025-0.905-1.775-1.876-2.194-2.895c-0.241-0.587-0.358-1.153-0.358-1.731    c0-3.525,4.582-7.061,11.763-9.163c0.423,0.651,0.83,1.3,1.159,1.894c0.289,0.524,0.832,0.82,1.392,0.82    c0.259,0,0.521-0.064,0.765-0.198c0.768-0.425,1.048-1.391,0.623-2.158c-0.209-0.38-0.447-0.774-0.693-1.17    c3.655-0.778,7.677-1.19,11.771-1.19c4.394,0,8.696,0.467,12.561,1.356c-0.273,0.505-0.631,0.97-1.098,1.406    c-0.641,0.598-0.675,1.603-0.076,2.244c0.312,0.335,0.735,0.504,1.16,0.504c0.388,0,0.778-0.141,1.084-0.427    c0.92-0.858,1.593-1.814,2.049-2.885c6.787,2.126,11.091,5.567,11.091,8.968C84.799,44.224,83.593,46.064,81.401,47.72z" id="svg_59" fill="#ffffff" fill-opacity="1"/><path d="M32.479,56.773c-0.079-2.402-1.779-6.836-7.717-6.836c-2.663,0-4.057,1.139-4.758,2.093    c-1.888,2.574-0.774,6.362-0.655,6.74c0.073,0.261,1.905,6.457,11.189,12.077c0.06,0.038,0.125,0.071,0.191,0.1    c0.189,0.082,1.189,0.495,2.152,0.495c1.16,0,1.76-0.586,2.015-0.938c0.485-0.667,0.563-1.522,0.214-2.596    C35.089,67.85,32.987,62.002,32.479,56.773z M22.394,57.863c-0.174-0.55-0.651-2.832,0.172-3.954    c0.145-0.196,0.583-0.795,2.196-0.795c4.185,0,4.519,3.168,4.542,3.79c0.001,0.039,0.002,0.078,0.007,0.117    c0.408,4.279,1.762,8.81,2.425,10.834C24.008,63.023,22.419,57.948,22.394,57.863z" id="svg_60" fill="#ffffff" fill-opacity="1"/><path d="M56.877,25.256c0.352,0,0.707-0.116,1.002-0.355c0.68-0.554,0.782-1.554,0.231-2.235    c-1.984-2.439-1.132-4.752,0.423-8.325c1.384-3.177,2.951-6.778,0.424-10.267c-0.516-0.712-1.508-0.87-2.218-0.355    c-0.709,0.515-0.87,1.507-0.354,2.218c1.393,1.924,0.618,3.965-0.764,7.137c-1.459,3.356-3.277,7.533,0.022,11.596    C55.957,25.056,56.416,25.256,56.877,25.256z" id="svg_61" fill="#ffffff" fill-opacity="1"/></g></g></g></svg>